<svg id="visual" viewBox="0 0 900 600" width="1200" height="800" xmlns="http://www.w3.org/2000/svg" xmlns:xlink="http://www.w3.org/1999/xlink" version="1.1">
  <g transform="translate(887.96908873172 133.7819670863442)">
    <path d="M171.5 -338.4C231.6 -228.3 295.9 -196.4 368.5 -138.6C441.1 -80.8 521.9 2.9 512.8 74.5C503.6 146 404.5 205.3 328.3 273.7C252.2 342 199.1 419.5 133.4 425.8C67.7 432.1 -10.5 367.2 -82.7 325.8C-154.9 284.4 -221 266.6 -298.8 229.6C-376.6 192.5 -465.9 136.2 -485.2 64C-504.5 -8.1 -453.7 -96.1 -418.3 -198.3C-382.9 -300.5 -362.8 -416.9 -295.7 -523.7C-228.5 -630.6 -114.3 -727.8 -29.3 -682.3C55.8 -636.8 111.5 -448.5 171.5 -338.4" fill="#20C997">
    </path>
  </g>
</svg>